<?xml version="1.0" encoding="UTF-8" standalone="no"?>
<svg
   xmlns:dc="http://purl.org/dc/elements/1.1/"
   xmlns:cc="http://creativecommons.org/ns#"
   xmlns:rdf="http://www.w3.org/1999/02/22-rdf-syntax-ns#"
   xmlns:svg="http://www.w3.org/2000/svg"
   xmlns="http://www.w3.org/2000/svg"
   xmlns:sodipodi="http://sodipodi.sourceforge.net/DTD/sodipodi-0.dtd"
   xmlns:inkscape="http://www.inkscape.org/namespaces/inkscape"
   version="1.1"
   id="Layer_2"
   x="0px"
   y="0px"
   viewBox="0 0 393.89001 220.72236"
   xml:space="preserve"
   sodipodi:docname="waveillo-pink.svg"
   width="393.89001"
   height="220.72237"
   inkscape:version="1.0 (6e3e5246a0, 2020-05-07)"><metadata
   id="metadata15"><rdf:RDF><cc:Work
       rdf:about=""><dc:format>image/svg+xml</dc:format><dc:type
         rdf:resource="http://purl.org/dc/dcmitype/StillImage" /><dc:title></dc:title></cc:Work></rdf:RDF></metadata><defs
   id="defs13" /><sodipodi:namedview
   inkscape:document-rotation="0"
   pagecolor="#ffffff"
   bordercolor="#666666"
   borderopacity="1"
   objecttolerance="10"
   gridtolerance="10"
   guidetolerance="10"
   inkscape:pageopacity="0"
   inkscape:pageshadow="2"
   inkscape:window-width="1280"
   inkscape:window-height="656"
   id="namedview11"
   showgrid="false"
   fit-margin-top="0"
   fit-margin-left="0"
   fit-margin-right="0"
   fit-margin-bottom="0"
   inkscape:zoom="0.52249848"
   inkscape:cx="204.20501"
   inkscape:cy="116.92873"
   inkscape:window-x="0"
   inkscape:window-y="27"
   inkscape:window-maximized="1"
   inkscape:current-layer="Layer_2" />
<style
   type="text/css"
   id="style2">
	.st0{fill:none;stroke:#000000;stroke-width:8;stroke-linecap:round;stroke-linejoin:round;stroke-miterlimit:10;}
</style>
<path
   style="fill:none;stroke:#f2c6cf;stroke-opacity:1"
   class="st0"
   d="m 245.79,201.19871 c 36.26,13.28 77.36,12.87 113.35,-1.13"
   id="path4" />
<path
   style="fill:none;stroke:#f2c6cf;stroke-opacity:1"
   class="st0"
   d="m 4,193.68871 c 0,0 67.85,36.9 128.91,17.18 61.06,-19.72 145.79,-116.409995 188.24,-111.319995 0,0 10.22,0 14.46,3.389995 0,0 -61.91,33.81 -21.2,55.07 0,0 35.62,18.72 75.48,-5.88"
   id="path6" />
<path
   style="fill:none;stroke:#f2c6cf;stroke-opacity:1"
   class="st0"
   d="m 263.55,124.16871 c 0,0 -72.96,52.55 -157.77,52.55 0,0 -85.66,-3.39 -91.6,-36.47 0,0 46.65,1.7 82.27,-19.51 35.62,-21.209995 52.58,-39.009995 62.76,-50.889995 10.18,-11.87 56.82,-78.8800003 137.4,-63.6100003 80.58,15.2700003 -4.24,17.8100003 -4.24,17.8100003 0,0 -67,9.33 -61.91,57.67 0,0 -1.79,39.699995 51.69,30.449995"
   id="path8" />
</svg>
