<?xml version="1.0" encoding="UTF-8" standalone="no"?>
<svg
   xmlns:dc="http://purl.org/dc/elements/1.1/"
   xmlns:cc="http://creativecommons.org/ns#"
   xmlns:rdf="http://www.w3.org/1999/02/22-rdf-syntax-ns#"
   xmlns:svg="http://www.w3.org/2000/svg"
   xmlns="http://www.w3.org/2000/svg"
   xmlns:sodipodi="http://sodipodi.sourceforge.net/DTD/sodipodi-0.dtd"
   xmlns:inkscape="http://www.inkscape.org/namespaces/inkscape"
   inkscape:version="1.0 (6e3e5246a0, 2020-05-07)"
   height="220.72237"
   width="393.89001"
   sodipodi:docname="waveillo-dark-blue.svg"
   xml:space="preserve"
   viewBox="0 0 393.89001 220.72236"
   y="0px"
   x="0px"
   id="Layer_2"
   version="1.1"><metadata
   id="metadata15"><rdf:RDF><cc:Work
       rdf:about=""><dc:format>image/svg+xml</dc:format><dc:type
         rdf:resource="http://purl.org/dc/dcmitype/StillImage" /><dc:title></dc:title></cc:Work></rdf:RDF></metadata><defs
   id="defs13"><filter
     height="1.0000042"
     y="-2.0792032e-06"
     width="1.0000023"
     x="-1.1323095e-06"
     id="filter840"
     style="color-interpolation-filters:sRGB"
     inkscape:collect="always"><feGaussianBlur
       id="feGaussianBlur842"
       stdDeviation="0.00014964234"
       inkscape:collect="always" /></filter><filter
     height="1.0000061"
     y="-3.0614032e-06"
     width="1.0000019"
     x="-9.306839e-07"
     id="filter844"
     style="color-interpolation-filters:sRGB"
     inkscape:collect="always"><feGaussianBlur
       id="feGaussianBlur846"
       stdDeviation="0.00014964234"
       inkscape:collect="always" /></filter><filter
     height="1.0000665"
     y="-3.3244157e-05"
     width="1.0000063"
     x="-3.1684306e-06"
     id="filter848"
     style="color-interpolation-filters:sRGB"
     inkscape:collect="always"><feGaussianBlur
       id="feGaussianBlur850"
       stdDeviation="0.00014964234"
       inkscape:collect="always" /></filter></defs><sodipodi:namedview
   inkscape:current-layer="Layer_2"
   inkscape:window-maximized="1"
   inkscape:window-y="27"
   inkscape:window-x="0"
   inkscape:cy="116.92873"
   inkscape:cx="204.20501"
   inkscape:zoom="0.52249848"
   fit-margin-bottom="0"
   fit-margin-right="0"
   fit-margin-left="0"
   fit-margin-top="0"
   showgrid="false"
   id="namedview11"
   inkscape:window-height="656"
   inkscape:window-width="1280"
   inkscape:pageshadow="2"
   inkscape:pageopacity="0"
   guidetolerance="10"
   gridtolerance="10"
   objecttolerance="10"
   borderopacity="1"
   bordercolor="#666666"
   pagecolor="#ffffff" />
<style
   id="style2"
   type="text/css">
	.st0{fill:none;stroke:#000000;stroke-width:8;stroke-linecap:round;stroke-linejoin:round;stroke-miterlimit:10;}
</style>
<path
   style="opacity:1;filter:url(#filter848);stroke:#19527d;stroke-opacity:1"
   id="path4"
   d="m 245.79,201.19871 c 36.26,13.28 77.36,12.87 113.35,-1.13"
   class="st0" />
<path
   style="opacity:1;filter:url(#filter844);stroke:#19527d;stroke-opacity:1"
   id="path6"
   d="m 4,193.68871 c 0,0 67.85,36.9 128.91,17.18 61.06,-19.72 145.79,-116.409995 188.24,-111.319995 0,0 10.22,0 14.46,3.389995 0,0 -61.91,33.81 -21.2,55.07 0,0 35.62,18.72 75.48,-5.88"
   class="st0" />
<path
   style="opacity:1;filter:url(#filter840);stroke:#19527d;stroke-opacity:1"
   id="path8"
   d="m 263.55,124.16871 c 0,0 -72.96,52.55 -157.77,52.55 0,0 -85.66,-3.39 -91.6,-36.47 0,0 46.65,1.7 82.27,-19.51 35.62,-21.209995 52.58,-39.009995 62.76,-50.889995 10.18,-11.87 56.82,-78.8800003 137.4,-63.6100003 80.58,15.2700003 -4.24,17.8100003 -4.24,17.8100003 0,0 -67,9.33 -61.91,57.67 0,0 -1.79,39.699995 51.69,30.449995"
   class="st0" />
</svg>
