<?xml version="1.0" encoding="UTF-8" standalone="no"?>
<svg
   xmlns:dc="http://purl.org/dc/elements/1.1/"
   xmlns:cc="http://creativecommons.org/ns#"
   xmlns:rdf="http://www.w3.org/1999/02/22-rdf-syntax-ns#"
   xmlns:svg="http://www.w3.org/2000/svg"
   xmlns="http://www.w3.org/2000/svg"
   xmlns:sodipodi="http://sodipodi.sourceforge.net/DTD/sodipodi-0.dtd"
   xmlns:inkscape="http://www.inkscape.org/namespaces/inkscape"
   inkscape:version="1.0 (6e3e5246a0, 2020-05-07)"
   sodipodi:docname="wave-blue.svg"
   viewBox="0 0 1024 581.95013"
   height="581.95013"
   width="1024"
   id="svg82"
   version="1.1">
  <metadata
     id="metadata88">
    <rdf:RDF>
      <cc:Work
         rdf:about="">
        <dc:format>image/svg+xml</dc:format>
        <dc:type
           rdf:resource="http://purl.org/dc/dcmitype/StillImage" />
        <dc:title />
      </cc:Work>
    </rdf:RDF>
  </metadata>
  <defs
     id="defs86" />
  <sodipodi:namedview
     inkscape:current-layer="g90"
     inkscape:window-maximized="1"
     inkscape:window-y="27"
     inkscape:window-x="0"
     inkscape:cy="253.57278"
     inkscape:cx="407.80515"
     inkscape:zoom="1"
     showgrid="false"
     id="namedview84"
     inkscape:window-height="1016"
     inkscape:window-width="1920"
     inkscape:pageshadow="2"
     inkscape:pageopacity="0"
     guidetolerance="10"
     gridtolerance="10"
     objecttolerance="10"
     borderopacity="1"
     bordercolor="#666666"
     pagecolor="#ffffff"
     inkscape:document-rotation="0"
     fit-margin-top="0"
     fit-margin-left="0"
     fit-margin-right="0"
     fit-margin-bottom="0" />
  <g
     id="g90"
     inkscape:label="Image"
     inkscape:groupmode="layer"
     transform="translate(-1.5526214,-0.57595859)">
    <path
       id="path96"
       d="M 630.46596,368.01039 C 475.93233,554.99038 216.75873,600.25846 1.5526214,521.20725 v 8.06299 C 193.60666,630.06658 407.2558,561.33757 574.02508,444.04925 661.04409,382.84871 729.04571,295.7313 840.10378,279.31747 v 8.06299 c -196.18712,105.80662 137.1515,258.21492 185.44882,104.8189 -38.92004,12.95078 -250.97356,78.06267 -212.17764,-40.19079 9.87714,-30.11124 88.5478,-54.655 83.80676,-79.35436 -5.57961,-29.02516 -44.33035,-10.28032 -57.07794,-1.39973 -60.49422,-37.27119 -131.24534,57.79714 -199.88241,8.013 C 593.87212,245.64964 609.81341,191.8719 637.12923,151.70932 686.64244,78.910984 774.17751,61.671016 856.22978,61.61667 836.06422,-31.646034 653.78092,3.0529332 590.15107,28.792384 428.15023,94.3242 348.59752,267.64548 187.00145,336.78484 156.64751,349.7719 24.460792,351.40627 15.669067,377.79644 c -11.2592436,33.79846 61.4338,58.45831 82.645919,67.42194 92.655874,39.15309 200.808824,45.85908 298.324264,20.17038 83.5318,-22.00552 153.50325,-69.54008 233.82671,-97.37837 M 815.9148,37.427688 v 8.06299 C 702.60879,60.122758 467.01547,213.33962 654.65493,311.56944 v 16.12598 C 509.76949,416.38592 338.64537,500.86109 162.81247,460.49856 109.28307,448.21056 66.608637,413.83963 17.678608,392.19936 48.28887,348.87368 188.12302,353.26479 243.4424,321.88443 420.87903,221.23167 575.11117,-66.176684 815.9148,37.427688 M 630.46596,537.33323 v 8.06299 c 66.34957,34.77891 290.93697,71.97919 322.51973,-24.18897 l -129.00792,38.91522 z"
       style="fill:#8db5e1;stroke:none;stroke-width:8.06297;fill-opacity:1" />
  </g>
</svg>
